<?xml version="1.0" encoding="UTF-8" standalone="no"?>
<!-- Created with Inkscape (http://www.inkscape.org/) -->

<svg
   width="26.458334mm"
   height="26.458334mm"
   viewBox="0 0 26.458334 26.458334"
   version="1.1"
   id="svg1"
   sodipodi:docname="blueberry.svg"
   inkscape:version="1.4.2 (f4327f4, 2025-05-13)"
   xmlns:inkscape="http://www.inkscape.org/namespaces/inkscape"
   xmlns:sodipodi="http://sodipodi.sourceforge.net/DTD/sodipodi-0.dtd"
   xmlns="http://www.w3.org/2000/svg"
   xmlns:svg="http://www.w3.org/2000/svg">
  <sodipodi:namedview
     id="namedview1"
     pagecolor="#ffffff"
     bordercolor="#000000"
     borderopacity="0.25"
     inkscape:showpageshadow="2"
     inkscape:pageopacity="0.0"
     inkscape:pagecheckerboard="0"
     inkscape:deskcolor="#d1d1d1"
     inkscape:document-units="mm"
     inkscape:zoom="3.0424999"
     inkscape:cx="-17.091208"
     inkscape:cy="75.760068"
     inkscape:window-width="2560"
     inkscape:window-height="1494"
     inkscape:window-x="-11"
     inkscape:window-y="-11"
     inkscape:window-maximized="1"
     inkscape:current-layer="svg1" />
  <defs
     id="defs1" />
  <g
     id="layer1"
     transform="translate(49.999999,49.999999)">
    <circle
       style="fill:#4d0099;fill-opacity:1;stroke-width:0.0700041"
       id="path1"
       cx="-36.770832"
       cy="-36.770832"
       r="13.229167" />
    <path
       id="path12-23"
       style="fill:#13004d;fill-opacity:1;stroke-width:0.473301"
       d="m -36.770832,-47.354166 c 0,0 -2.645834,3.152017 -2.645834,6.349999 0,3.197984 2.645834,4.233334 2.645834,4.233334 0,0 2.645833,-1.036948 2.645833,-4.233334 0,-3.196383 -2.645833,-6.349999 -2.645833,-6.349999 z m 7.770284,2.645834 c 0,0 -4.099701,0.357925 -6.361014,2.61924 -2.261317,2.261316 -1.122532,4.864306 -1.122532,4.864306 0,0 2.604119,1.137654 4.864305,-1.122533 2.260184,-2.260184 2.619241,-6.361013 2.619241,-6.361013 z m 2.813049,7.9375 c 0,0 -3.152017,-2.645834 -6.349999,-2.645834 -3.197984,0 -4.233334,2.645834 -4.233334,2.645834 0,0 1.036948,2.645833 4.233334,2.645833 3.196383,0 6.349999,-2.645833 6.349999,-2.645833 z m -10.583335,10.583333 c 0,0 2.645835,-3.152017 2.645835,-6.349999 0,-3.197984 -2.645835,-4.233334 -2.645835,-4.233334 0,0 -2.645832,1.036948 -2.645832,4.233334 0,3.196383 2.645832,6.349999 2.645832,6.349999 z m -10.583332,-10.583334 c 0,0 3.152017,2.645834 6.349999,2.645834 3.197984,0 4.233333,-2.645834 4.233333,-2.645834 0,0 -1.036947,-2.645833 -4.233333,-2.645833 -3.196383,0 -6.349999,2.645833 -6.349999,2.645833 z m 18.353193,7.770285 c 0,0 -0.357925,-4.0997 -2.61924,-6.361014 -2.261317,-2.261317 -4.864306,-1.122532 -4.864306,-1.122532 0,0 -1.137654,2.604119 1.122533,4.864305 2.260184,2.260184 6.361013,2.619241 6.361013,2.619241 z m -15.707359,-4.26e-4 c 0,0 4.0997,-0.357925 6.361014,-2.619239 2.261316,-2.261317 1.122532,-4.864306 1.122532,-4.864306 0,0 -2.60412,-1.137654 -4.864305,1.122532 -2.260184,2.260185 -2.619241,6.361013 -2.619241,6.361013 z m 0,-15.707358 c 0,0 0.357925,4.0997 2.61924,6.361014 2.261316,2.261317 4.864306,1.122532 4.864306,1.122532 0,0 1.137654,-2.604119 -1.122533,-4.864305 -2.260184,-2.260184 -6.361013,-2.619241 -6.361013,-2.619241 z" />
    <path
       id="path13-8-9-0"
       style="fill:#aa00ff;fill-opacity:1;stroke-width:0.132291"
       d="m -33.754161,-39.788329 c 0,0 -1.725707,0.228998 -2.432153,0.935442 -0.706445,0.706446 -0.374177,1.870887 -0.374177,1.870887 0,0 1.162214,0.334494 1.870886,-0.374178 0.708672,-0.708672 0.935444,-2.432151 0.935444,-2.432151 z m -6.034184,8.25e-4 c 0,0 0.228997,1.725707 0.935443,2.432152 0.706445,0.706445 1.870887,0.374177 1.870887,0.374177 0,0 0.334493,-1.162214 -0.374178,-1.870886 -0.708673,-0.708672 -2.432152,-0.935443 -2.432152,-0.935443 z m 8.25e-4,6.034184 c 0,0 1.725708,-0.228998 2.432153,-0.935443 0.706445,-0.706445 0.374177,-1.870887 0.374177,-1.870887 0,0 -1.162214,-0.334494 -1.870886,0.374178 -0.708673,0.708673 -0.935444,2.432152 -0.935444,2.432152 z m 6.034185,-8.25e-4 c 0,0 -0.228998,-1.725707 -0.935443,-2.432153 -0.706445,-0.706444 -1.870887,-0.374176 -1.870887,-0.374176 0,0 -0.334494,1.162213 0.374178,1.870885 0.708673,0.708673 2.432152,0.935444 2.432152,0.935444 z m 0.951253,-3.016687 c 0,0 -1.382185,-1.058333 -2.38125,-1.058333 -0.999064,0 -1.5875,1.058333 -1.5875,1.058333 0,0 0.585286,1.058332 1.5875,1.058332 1.002214,0 2.38125,-1.058332 2.38125,-1.058332 z m -7.9375,-1e-6 c 0,0 1.382185,1.058334 2.38125,1.058334 0.999064,0 1.5875,-1.058334 1.5875,-1.058334 0,0 -0.585286,-1.058332 -1.5875,-1.058332 -1.002214,0 -2.38125,1.058332 -2.38125,1.058332 z m 3.968749,3.968751 c 0,0 1.058334,-1.382185 1.058334,-2.38125 0,-0.999064 -1.058334,-1.5875 -1.058334,-1.5875 0,0 -1.058332,0.585286 -1.058332,1.5875 0,1.002213 1.058332,2.38125 1.058332,2.38125 z m 1e-6,-7.9375 c 0,0 -1.058333,1.382185 -1.058333,2.38125 0,0.999064 1.058333,1.5875 1.058333,1.5875 0,0 1.058333,-0.585286 1.058333,-1.5875 0,-1.002214 -1.058333,-2.38125 -1.058333,-2.38125 z" />
  </g>
</svg>
